<svg id="Capa_1" enable-background="new 0 0 512 512" height="512" viewBox="0 0 512 512" width="512" xmlns="http://www.w3.org/2000/svg"><path d="m256 27.903c-4.142 0-7.5 3.358-7.5 7.5v70.843c0 4.142 3.358 7.5 7.5 7.5s7.5-3.358 7.5-7.5v-70.843c0-4.142-3.358-7.5-7.5-7.5z" fill="#6073d1"/><g fill="#e6e6e6"><path d="m240.547 256h30.905v64.901h-30.905z"/><path d="m100.368 368.612h30.92v46.744h-30.92z"/><path d="m380.712 368.612h30.92v46.744h-30.92z" transform="matrix(-1 0 0 -1 792.344 783.968)"/><path d="m132.194 335.324h53.846v30.905h-53.846z"/><path d="m326.414 335.324h52.939v30.905h-52.939z" transform="matrix(-1 0 0 -1 705.767 701.553)"/></g><ellipse cx="115.828" cy="488.643" fill="#ff3d7a" rx="23.369" ry="23.357"/><path d="m338.414 266.817h-164.828c-17.069 0-30.905-13.837-30.905-30.905v-53.569c0-47.792 38.743-86.535 86.535-86.535h53.569c47.792 0 86.535 38.743 86.535 86.535v53.569c0 17.068-13.837 30.905-30.906 30.905z" fill="#8c9eff"/><path d="m282.785 95.807h-30.905c47.792 0 86.535 38.743 86.535 86.535v53.569c0 17.069-13.837 30.905-30.905 30.905h30.905c17.069 0 30.905-13.837 30.905-30.905v-53.569c0-47.792-38.743-86.535-86.535-86.535z" fill="#7488ed"/><circle cx="256" cy="23.179" fill="#ff3d7a" r="23.179"/><path d="m256.194 512h-.388c-44.84 0-81.191-36.35-81.191-81.19v-97.372c0-12.897 10.455-23.353 23.353-23.353h116.063c12.897 0 23.353 10.455 23.353 23.353v97.372c0 44.84-36.35 81.19-81.19 81.19z" fill="#8c9eff"/><path d="m314.032 310.085h-30.905c12.897 0 23.353 10.455 23.353 23.353v97.372c0 39.622-28.389 72.596-65.932 79.738 4.944.941 10.041 1.452 15.259 1.452h.388c44.84 0 81.191-36.35 81.191-81.191v-97.372c-.002-12.897-10.457-23.352-23.354-23.352z" fill="#7488ed"/><path d="m317.811 187.493h-123.622c-8.534 0-15.453-6.918-15.453-15.453 0-8.534 6.918-15.453 15.453-15.453h123.622c8.534 0 15.453 6.918 15.453 15.453 0 8.535-6.919 15.453-15.453 15.453z" fill="#bdf9ff"/><path d="m133.352 376.531h-35.048c-5.691 0-10.304-4.613-10.304-10.304v-35.021c0-5.691 4.613-10.304 10.304-10.304h35.048c5.691 0 10.304 4.613 10.304 10.304v35.021c0 5.691-4.613 10.304-10.304 10.304z" fill="#ff3d7a"/><path d="m133.35 320.901h-30.92c5.692 0 10.307 4.612 10.307 10.302v35.026c0 5.69-4.615 10.302-10.307 10.302h30.92c5.692 0 10.307-4.612 10.307-10.302v-35.026c-.001-5.689-4.615-10.302-10.307-10.302z" fill="#eb3870"/><path d="m139.535 480.289h-47.413c-2.276 0-4.122-1.845-4.122-4.122v-64.609c0-2.276 1.845-4.122 4.122-4.122h47.413c2.276 0 4.122 1.845 4.122 4.122v64.609c-.001 2.277-1.846 4.122-4.122 4.122z" fill="#8c9eff"/><path d="m139.534 407.437h-30.92c2.277 0 4.123 1.845 4.123 4.121v64.611c0 2.276-1.846 4.121-4.123 4.121h30.92c2.277 0 4.123-1.845 4.123-4.121v-64.611c-.001-2.277-1.846-4.121-4.123-4.121z" fill="#7488ed"/><ellipse cx="396.172" cy="488.643" fill="#ff3d7a" rx="23.369" ry="23.357"/><path d="m378.648 376.531h35.048c5.691 0 10.304-4.613 10.304-10.304v-35.021c0-5.691-4.613-10.304-10.304-10.304h-35.048c-5.691 0-10.304 4.613-10.304 10.304v35.021c0 5.691 4.613 10.304 10.304 10.304z" fill="#ff3d7a"/><path d="m413.693 320.901h-30.92c5.692 0 10.307 4.612 10.307 10.302v35.026c0 5.69-4.615 10.302-10.307 10.302h30.92c5.692 0 10.307-4.612 10.307-10.302v-35.026c0-5.689-4.615-10.302-10.307-10.302z" fill="#eb3870"/><path d="m372.465 480.289h47.413c2.276 0 4.122-1.845 4.122-4.122v-64.609c0-2.276-1.845-4.122-4.122-4.122h-47.413c-2.276 0-4.122 1.845-4.122 4.122v64.609c.001 2.277 1.846 4.122 4.122 4.122z" fill="#8c9eff"/><path d="m419.877 407.437h-30.92c2.277 0 4.123 1.845 4.123 4.121v64.611c0 2.276-1.846 4.121-4.123 4.121h30.92c2.277 0 4.123-1.845 4.123-4.121v-64.611c0-2.277-1.846-4.121-4.123-4.121z" fill="#7488ed"/><path d="m284.53 439.372h-57.06c-9.846 0-17.828-7.982-17.828-17.828v-57.06c0-9.846 7.982-17.828 17.828-17.828h57.06c9.846 0 17.828 7.982 17.828 17.828v57.06c0 9.846-7.982 17.828-17.828 17.828z" fill="#ffca28"/><path d="m282.984 365.893c-2.929-2.929-7.678-2.929-10.606 0l-43.361 43.361c-2.929 2.929-2.929 7.678 0 10.606 2.929 2.929 7.678 2.929 10.606 0l43.361-43.361c2.929-2.929 2.929-7.678 0-10.606z" fill="#ff3d7a"/><path d="m238.01 388.767c4.142 0 7.5-3.358 7.5-7.5v-10.162c0-4.142-3.358-7.5-7.5-7.5s-7.5 3.358-7.5 7.5v10.162c0 4.142 3.358 7.5 7.5 7.5z" fill="#ff3d7a"/><path d="m273.99 396.986c-4.142 0-7.5 3.358-7.5 7.5v10.162c0 4.142 3.358 7.5 7.5 7.5s7.5-3.358 7.5-7.5v-10.162c0-4.142-3.358-7.5-7.5-7.5z" fill="#ff3d7a"/></svg>