<svg height="512" viewBox="0 0 64 64" width="512" xmlns="http://www.w3.org/2000/svg"><g id="cloud-brain-technology-artificial_intelligence" data-name="cloud-brain-technology-artificial intelligence"><g fill="#34314c"><path d="m23 43h2v14h-2z"/><path d="m12 50h-2v-6a1.006 1.006 0 0 1 .193-.591l5.58-7.62 1.614 1.182-5.387 7.356z"/><path d="m55 50h-2v-5.674l-5.708-7.816 1.616-1.18 5.9 8.08a1 1 0 0 1 .192.59z"/><path d="m39 43h2v14h-2z"/></g><path d="m61 25a10 10 0 0 1 -10 10h-38a10 10 0 0 1 -1-19.95v-.05a12 12 0 0 1 23.03-4.72 8.983 8.983 0 0 1 14.76 4.8 9.706 9.706 0 0 1 1.21-.08 10 10 0 0 1 10 10z" fill="#3780ea"/><circle cx="54" cy="52" fill="#f6cc4f" r="3"/><circle cx="40" cy="58" fill="#f6cc4f" r="3"/><circle cx="24" cy="58" fill="#f6cc4f" r="3"/><circle cx="11" cy="52" fill="#f6cc4f" r="3"/><path d="m19.01 21.1a.34.34 0 0 1 -.01-.1 5 5 0 0 1 10 0v18a5 5 0 0 1 -10 0 4.662 4.662 0 0 1 .13-1.13 4.662 4.662 0 0 1 -1.13.13 5.03 5.03 0 0 1 -2.42-.62 4.968 4.968 0 0 1 -2.58-4.38 5 5 0 0 1 2.71-4.44 4.946 4.946 0 0 1 -.71-2.56 5 5 0 0 1 4.01-4.9z" fill="#ec455a"/><path d="m48.29 28.56a5 5 0 0 1 2.71 4.44 5.106 5.106 0 0 1 -.41 2 5.2 5.2 0 0 1 -1.49 1.92 4.945 4.945 0 0 1 -3.1 1.08 4.662 4.662 0 0 1 -1.13-.13 4.662 4.662 0 0 1 .13 1.13 5 5 0 0 1 -10 0v-18a5 5 0 0 1 10 0 .34.34 0 0 1 -.01.1 5 5 0 0 1 4.01 4.9 4.946 4.946 0 0 1 -.71 2.56z" fill="#ec455a"/><path d="m24 15a6.007 6.007 0 0 0 -5.963 5.348 5.947 5.947 0 0 0 -3.61 7.845 5.991 5.991 0 0 0 3.573 10.807 6 6 0 0 0 12 0v-18a6.006 6.006 0 0 0 -6-6zm4 24a4 4 0 1 1 -4-4v-2a6 6 0 0 0 -5.635 3.959c-.124.011-.232.041-.365.041a4 4 0 0 1 -1.822-7.556 3.9 3.9 0 0 1 1.822-.444v-2a5.98 5.98 0 0 0 -1.78.281 3.909 3.909 0 0 1 -.22-1.281 4 4 0 0 1 2.185-3.548 6.005 6.005 0 0 0 5.815 4.548v-2a4 4 0 1 1 4-4z" fill="#9e2849"/><path d="m49.573 28.192a5.946 5.946 0 0 0 -3.61-7.844 6 6 0 0 0 -11.963.652v18a6 6 0 0 0 12 0 5.992 5.992 0 0 0 3.573-10.808zm-3.573 8.808c-.133 0-.241-.03-.365-.041a6 6 0 0 0 -5.635-3.959v2a4 4 0 1 1 -4 4v-18a4 4 0 1 1 4 4v2a6.005 6.005 0 0 0 5.815-4.548 4 4 0 0 1 2.185 3.548 3.935 3.935 0 0 1 -.22 1.281 6 6 0 0 0 -1.78-.281v2a3.914 3.914 0 0 1 1.832.449 4 4 0 0 1 -1.832 7.551z" fill="#9e2849"/></g></svg>