<svg enable-background="new 0 0 256 256" height="512" viewBox="0 0 256 256" width="512" xmlns="http://www.w3.org/2000/svg"><g id="Layer_36"><g><g><g><circle cx="215.158" cy="87.52" fill="#70d6f9" r="38.342"/></g></g><g><g><g><path d="m195 101c-2.761 0-5-2.239-5-5v-4c0-2.761 2.239-5 5-5s5 2.239 5 5v4c0 2.761-2.239 5-5 5z" fill="#fc657e"/></g></g></g><g><g><g><path d="m213.75 101c-2.761 0-5-2.239-5-5v-10c0-2.761 2.239-5 5-5s5 2.239 5 5v10c0 2.761-2.239 5-5 5z" fill="#fca265"/></g></g></g><g><g><g><path d="m232.5 101c-2.761 0-5-2.239-5-5v-18c0-2.761 2.239-5 5-5s5 2.239 5 5v18c0 2.761-2.239 5-5 5z" fill="#fcdd86"/></g></g></g><g><g><circle cx="128" cy="49.994" fill="#70d6f9" r="38.342"/></g></g><g><g><circle cx="128.25" cy="49.842" fill="#edf4fc" r="23.342"/></g></g><g><g><path d="m104.908 49.842h23.342c0-8.116 0-15.031 0-23.342-12.871 0-23.342 10.471-23.342 23.342z" fill="#fc657e"/></g></g><g><g><circle cx="40.842" cy="87.52" fill="#70d6f9" r="38.342"/></g></g><g><g><path d="m40.842 128.362c-22.52 0-40.842-18.321-40.842-40.842s18.322-40.842 40.842-40.842 40.843 18.322 40.843 40.842-18.322 40.842-40.843 40.842zm0-76.684c-19.763 0-35.842 16.078-35.842 35.842s16.079 35.842 35.842 35.842 35.842-16.079 35.842-35.842-16.078-35.842-35.842-35.842z"/></g></g><g><g><path d="m58.068 80.13h-22.484c-1.044 0-1.983-.636-2.37-1.605l-1.584-5.345c-.388-.969-1.326-1.605-2.37-1.605h-6.712c-1.41 0-2.553 1.143-2.553 2.553v27.873c0 1.41 1.143 2.553 2.553 2.553h35.52c1.41 0 2.553-1.143 2.553-2.553v-19.318c0-1.41-1.143-2.553-2.553-2.553z" fill="#fcdd86"/></g></g><g><g><g><path d="m58.068 72.605h-26.766c.131.175.244.365.328.575l1.584 5.346c.388.969 1.326 1.605 2.37 1.605h22.484c1.41 0 2.553 1.143 2.553 2.553v-7.525c0-1.411-1.143-2.554-2.553-2.554z" fill="#f5c84c"/></g></g></g><g><g><path d="m186.02 220.683c-.278-4.997-3.773-9.232-8.626-10.454l-22.505-5.665-7.954-3.922c-3.419-1.686-5.584-5.167-5.584-8.979v-4.933c-4.102 2.234-8.796 3.505-13.772 3.505-4.64 0-9.03-1.112-12.929-3.072v4.5c0 3.812-2.165 7.293-5.584 8.979l-7.954 3.922-22.505 5.665c-4.853 1.222-8.348 5.457-8.627 10.454l-2.204 29.461c-.102 1.822 1.349 3.356 3.174 3.356h114.099c1.825 0 3.276-1.533 3.174-3.356z" fill="#fc657e"/></g></g><g><g><path d="m116.45 217.745c.762.797 2.025.825 2.822.063l4.602-4.402c.797-.762.825-2.025.063-2.822l-11.788-12.323c-.851.969-1.884 1.791-3.083 2.382l-6.098 3.007z" fill="#f98fa6"/></g></g><g><g><path d="m136.526 217.685c.784.775 2.048.768 2.823-.016l13.801-13.961-6.216-3.065c-1.173-.579-2.185-1.38-3.026-2.323l-11.927 12.065c-.775.784-.768 2.048.016 2.823z" fill="#f98fa6"/></g></g><g><g><g><path d="m123.937 210.584c.505.528.656 1.26.472 1.916h7.13c-.27-.709-.127-1.54.441-2.114l11.927-12.065c-1.61-1.803-2.557-4.153-2.557-6.656v-4.933c-4.103 2.234-8.796 3.505-13.772 3.505-4.64 0-9.03-1.112-12.929-3.072v4.5c0 2.475-.924 4.801-2.5 6.597z" fill="#f9c1a8"/></g></g></g><g><g><path d="m131.918 126.1c-10.584 13.31-26.198 11.432-31.448 10.333-.954-.2-1.869.519-1.87 1.494v.02 23.311c0 15.938 13.04 28.978 28.978 28.978 15.938 0 28.978-13.04 28.978-28.978v-25.814c0-.151-.002-.302-.005-.453-.016-.822-.674-1.499-1.496-1.523-12.039-.353-18.381-5.124-20.819-7.513-.664-.653-1.738-.584-2.318.145z" fill="#f9c1a8"/></g></g><g><g><path d="m158.417 139.172c-.633 0-1.253.053-1.86.147v21.938c0 .654-.03 1.3-.073 1.943.631.102 1.273.169 1.933.169 6.682 0 12.099-5.417 12.099-12.099s-5.418-12.098-12.099-12.098z" fill="#f9c1a8"/></g></g><g><g><path d="m98.6 161.258c0-3.002 0-15.969 0-21.938-.607-.094-1.227-.147-1.86-.147-6.682 0-12.099 5.417-12.099 12.099s5.417 12.099 12.099 12.099c.659 0 1.302-.067 1.933-.169-.043-.644-.073-1.291-.073-1.944z" fill="#f9c1a8"/></g></g><g><g><g><path d="m96.741 139.173c.633 0 1.253.053 1.86.147v-1.373c0-.007 0-.013 0-.02.001-.975.916-1.694 1.87-1.494 5.25 1.099 20.864 2.977 31.448-10.333.58-.729 1.654-.798 2.319-.146 2.437 2.389 8.78 7.16 20.819 7.513.822.024 1.48.701 1.496 1.523.003.151.005.302.005.453v3.876c.607-.094 1.227-.147 1.86-.147 3.261 0 6.216 1.297 8.391 3.395v-21.762c0-9.104-7.449-16.553-16.553-16.553-3.088 0-5.975.873-8.456 2.36-2.898-4.837-8.177-8.102-14.195-8.102h-8.5c-16.451 0-29.912 13.46-29.912 29.912v13.403c2.069-1.656 4.69-2.652 7.548-2.652z" fill="#414344"/></g></g></g><g><g><path d="m127.579 192.736c-17.357 0-31.479-14.121-31.479-31.479v-23.311c.001-1.235.544-2.371 1.49-3.139.955-.774 2.193-1.075 3.392-.822 5.536 1.158 19.438 2.556 28.979-9.442l-.001.001c.717-.902 1.786-1.46 2.933-1.531 1.147-.073 2.274.351 3.094 1.156 1.972 1.933 7.786 6.466 19.142 6.799 2.157.064 3.88 1.81 3.922 3.974l.005.502v25.814c.001 17.357-14.12 31.478-31.477 31.478zm-26.479-53.638v22.16c0 14.6 11.878 26.479 26.479 26.479s26.479-11.878 26.479-26.479v-25.327c-11.118-.533-17.605-4.63-20.822-7.493-10.805 12.793-26.127 11.701-32.136 10.66zm30.818-12.998h.01z"/></g></g><g><g><g><path d="m166.809 145.067c-.635 0-1.261-.242-1.736-.7-1.802-1.738-4.166-2.695-6.656-2.695-.473 0-.97.04-1.478.118-.72.111-1.456-.098-2.009-.573-.554-.475-.873-1.168-.873-1.898v-3.389c-11.118-.533-17.605-4.63-20.822-7.493-10.805 12.795-26.127 11.703-32.135 10.661v.222c0 .73-.319 1.423-.873 1.898s-1.288.683-2.009.573c-.507-.079-1.004-.118-1.478-.118-2.195 0-4.266.728-5.987 2.105-.75.601-1.777.717-2.645.301-.866-.417-1.417-1.292-1.417-2.253v-13.402c0-17.872 14.54-32.412 32.412-32.412h8.5c5.85 0 11.41 2.775 15.003 7.371 2.414-1.071 5.019-1.629 7.648-1.629 10.506 0 19.053 8.547 19.053 19.053v21.762c0 1.003-.599 1.909-1.522 2.301-.314.132-.647.197-.976.197zm-7.752-8.381c1.831.08 3.606.499 5.251 1.227v-17.107c0-7.749-6.304-14.053-14.053-14.053-2.504 0-4.983.693-7.17 2.004-.568.341-1.25.441-1.893.281-.643-.161-1.196-.571-1.537-1.14-2.545-4.248-7.164-6.887-12.051-6.887h-8.5c-15.115 0-27.412 12.297-27.412 27.412v9.157c1.473-.544 3.031-.853 4.609-.901.238-.729.68-1.376 1.289-1.871.955-.774 2.192-1.074 3.393-.822 5.534 1.157 19.438 2.557 28.979-9.442.716-.901 1.785-1.459 2.932-1.53 1.147-.073 2.274.351 3.094 1.156 1.972 1.933 7.786 6.466 19.142 6.799 2.158.064 3.88 1.81 3.922 3.974z"/></g></g></g><g><g><path d="m128 176.645c-4.56 0-8.808-2.258-11.363-6.041-.773-1.144-.472-2.698.672-3.471s2.698-.473 3.471.672c1.625 2.404 4.324 3.84 7.221 3.84s5.596-1.436 7.221-3.84c.772-1.145 2.327-1.445 3.471-.672s1.445 2.327.672 3.471c-2.557 3.783-6.805 6.041-11.365 6.041z"/></g></g><g><g><path d="m185.049 256h-114.098c-1.554 0-3.058-.647-4.126-1.777-1.068-1.129-1.631-2.667-1.544-4.218l2.207-29.508c.338-6.075 4.563-11.194 10.509-12.691l22.248-5.6 7.716-3.805c2.584-1.274 4.189-3.856 4.189-6.737v-4.5c0-.868.45-1.673 1.188-2.128.738-.456 1.659-.496 2.435-.105 3.703 1.861 7.674 2.805 11.806 2.805 4.382 0 8.73-1.107 12.576-3.201.775-.421 1.714-.404 2.472.046.758.451 1.223 1.268 1.223 2.149v4.933c0 2.881 1.605 5.462 4.19 6.737l7.716 3.805 22.248 5.6c5.938 1.495 10.16 6.603 10.511 12.714l2.203 29.438c.089 1.599-.474 3.137-1.542 4.266-1.069 1.13-2.572 1.777-4.127 1.777zm-67.899-65.052v.716c0 4.799-2.674 9.099-6.978 11.221l-7.955 3.922c-.158.078-.324.139-.495.182l-22.505 5.665c-3.813.96-6.522 4.243-6.741 8.168l-2.207 29.508c-.01.194.096.36.188.457s.252.212.494.212h114.099c.242 0 .402-.116.494-.212.092-.097.198-.263.185-.504l-2.201-29.414c-.001-.016-.002-.032-.003-.047-.219-3.926-2.928-7.208-6.741-8.168l-22.505-5.665c-.171-.043-.337-.104-.495-.182l-7.954-3.922c-4.305-2.123-6.979-6.422-6.979-11.221v-1.029c-3.585 1.382-7.417 2.101-11.271 2.101-3.597 0-7.09-.6-10.43-1.788z"/></g></g><g><g><path d="m165.185 255c-1.381 0-2.5-1.119-2.5-2.5v-24.97c0-1.381 1.119-2.5 2.5-2.5s2.5 1.119 2.5 2.5v24.97c0 1.381-1.119 2.5-2.5 2.5z"/></g></g><g><g><path d="m90.815 255c-1.381 0-2.5-1.119-2.5-2.5v-24.97c0-1.381 1.119-2.5 2.5-2.5s2.5 1.119 2.5 2.5v24.97c0 1.381-1.119 2.5-2.5 2.5z"/></g></g><g><g><g><circle cx="116.453" cy="152.79" r="3.835"/></g></g><g><g><circle cx="139.061" cy="152.79" r="3.835"/></g></g></g><g><g><path d="m158.417 165.87c-.729 0-1.491-.065-2.33-.201-1.275-.206-2.184-1.348-2.097-2.637.04-.587.067-1.178.067-1.775v-21.937c0-1.233.899-2.282 2.118-2.471.759-.117 1.513-.177 2.241-.177 8.05 0 14.599 6.549 14.599 14.599s-6.549 14.599-14.598 14.599zm.64-24.177v19.156c4.995-.331 8.958-4.5 8.958-9.578s-3.963-9.247-8.958-9.578z"/></g></g><g><g><path d="m96.741 165.87c-8.05 0-14.599-6.549-14.599-14.599s6.549-14.599 14.599-14.599c.729 0 1.482.06 2.241.177 1.219.188 2.118 1.237 2.118 2.471v21.938c0 .597.028 1.187.067 1.774.087 1.288-.821 2.43-2.095 2.636-.838.136-1.6.202-2.331.202zm-.641-24.177c-4.995.331-8.958 4.5-8.958 9.578s3.963 9.247 8.958 9.578z"/></g></g><g><g><path d="m117.893 220.859c-1.185 0-2.367-.464-3.249-1.385l-13.039-13.631c-.954-.998-.919-2.58.079-3.535s2.58-.919 3.535.079l12.689 13.267 3.874-3.705-10.933-11.43c-.954-.998-.919-2.58.079-3.535s2.581-.919 3.535.079l11.281 11.794c1.713 1.791 1.65 4.643-.141 6.356l-4.603 4.402c-.869.831-1.989 1.244-3.107 1.244z"/></g></g><g><g><path d="m137.929 220.762c-1.19 0-2.312-.46-3.16-1.298l-4.529-4.478c-1.763-1.743-1.779-4.596-.037-6.358l11.643-11.777c.971-.983 2.554-.991 3.535-.021.982.971.991 2.553.021 3.535l-11.288 11.42 3.812 3.768 13.188-13.34c.971-.982 2.555-.992 3.535-.021.982.971.991 2.554.021 3.535l-13.542 13.699c-.843.854-1.969 1.329-3.171 1.335-.01.001-.019.001-.028.001z"/></g></g><g><g><g><path d="m131.234 215h-6.468c-1.381 0-2.5-1.119-2.5-2.5s1.119-2.5 2.5-2.5h6.468c1.381 0 2.5 1.119 2.5 2.5s-1.119 2.5-2.5 2.5z"/></g></g></g><g><g><path d="m215.158 128.362c-22.521 0-40.842-18.322-40.842-40.842s18.322-40.842 40.842-40.842 40.842 18.322 40.842 40.842-18.322 40.842-40.842 40.842zm0-76.684c-19.764 0-35.842 16.079-35.842 35.842s16.079 35.842 35.842 35.842 35.842-16.078 35.842-35.842-16.079-35.842-35.842-35.842z"/></g></g><g><g><path d="m128 90.836c-22.521 0-40.842-18.322-40.842-40.842s18.321-40.843 40.842-40.843 40.842 18.322 40.842 40.842-18.321 40.843-40.842 40.843zm0-76.685c-19.764 0-35.842 16.079-35.842 35.842s16.078 35.843 35.842 35.843 35.842-16.079 35.842-35.842-16.078-35.843-35.842-35.843z"/></g></g><g><g><path d="m128.25 75.685c-14.25 0-25.842-11.593-25.842-25.842s11.592-25.843 25.842-25.843 25.842 11.593 25.842 25.842-11.592 25.843-25.842 25.843zm0-46.685c-11.493 0-20.842 9.35-20.842 20.842s9.35 20.842 20.842 20.842 20.842-9.35 20.842-20.842-9.349-20.842-20.842-20.842z"/></g></g><g><g><path d="m184.918 20.551c-4.149.773-7.419 3.976-8.208 8.041-.04.204-.325.204-.364 0-.789-4.065-4.059-7.268-8.208-8.041-.208-.039-.208-.318 0-.357 4.149-.773 7.419-3.976 8.208-8.041.04-.204.325-.204.364 0 .789 4.065 4.059 7.268 8.208 8.041.208.039.208.318 0 .357z" fill="#f5c84c"/></g></g><g><g><path d="m73.54 140.128c-2.973.554-5.317 2.85-5.882 5.762-.028.146-.233.146-.261 0-.565-2.913-2.909-5.209-5.882-5.762-.149-.028-.149-.228 0-.256 2.973-.554 5.317-2.85 5.882-5.762.028-.146.233-.146.261 0 .565 2.913 2.909 5.209 5.882 5.762.149.028.149.228 0 .256z" fill="#fc657e"/></g></g><g><g><circle cx="158.981" cy="3.377" fill="#87d147" r="3.377"/></g></g><g><g><circle cx="199.981" cy="218.377" fill="#f5c84c" r="3.377"/></g></g><g><g><path d="m192.454 193.758h-1.824v-1.824c0-1.366-1.107-2.473-2.473-2.473s-2.473 1.107-2.473 2.473v1.824h-1.824c-1.366 0-2.473 1.107-2.473 2.473s1.107 2.473 2.473 2.473h1.824v1.824c0 1.366 1.107 2.473 2.473 2.473s2.473-1.107 2.473-2.473v-1.824h1.824c1.366 0 2.473-1.107 2.473-2.473s-1.108-2.473-2.473-2.473z" fill="#70d6f9"/></g></g><g><g><path d="m58.068 107.054h-35.52c-2.786 0-5.053-2.267-5.053-5.053v-27.873c0-2.786 2.267-5.053 5.053-5.053h6.711c2.079 0 3.92 1.247 4.692 3.176.028.072.054.145.076.219l1.52 5.128 22.521.033c2.786 0 5.053 2.267 5.053 5.053v19.316c0 2.787-2.267 5.054-5.053 5.054zm-35.52-32.979-.052 27.925 35.573.053.053-19.371-.053-.053h-22.485c-2.078 0-3.919-1.247-4.691-3.176-.028-.072-.054-.145-.076-.219l-1.52-5.128z"/></g></g><g><g><g><path d="m60.621 85.183c-1.381 0-2.5-1.119-2.5-2.5v-7.525l-26.449-.053c-1.381 0-2.5-1.119-2.5-2.5s1.119-2.5 2.5-2.5h26.396c2.786 0 5.053 2.267 5.053 5.053v7.525c0 1.381-1.119 2.5-2.5 2.5z"/></g></g></g><g><g><path d="m128.25 34c-1.381 0-2.5-1.119-2.5-2.5v-5c0-1.381 1.119-2.5 2.5-2.5s2.5 1.119 2.5 2.5v5c0 1.381-1.119 2.5-2.5 2.5z"/></g></g><g><g><path d="m128.25 75.685c-1.381 0-2.5-1.119-2.5-2.5v-5c0-1.381 1.119-2.5 2.5-2.5s2.5 1.119 2.5 2.5v5c0 1.38-1.119 2.5-2.5 2.5z"/></g></g><g><g><path d="m109.908 52.342h-5c-1.381 0-2.5-1.119-2.5-2.5s1.119-2.5 2.5-2.5h5c1.381 0 2.5 1.119 2.5 2.5s-1.119 2.5-2.5 2.5z"/></g></g><g><g><path d="m151.592 52.342h-5c-1.381 0-2.5-1.119-2.5-2.5s1.119-2.5 2.5-2.5h5c1.381 0 2.5 1.119 2.5 2.5s-1.119 2.5-2.5 2.5z"/></g></g><g><g><path d="m128.25 52.342c-1.381 0-2.5-1.119-2.5-2.5v-11.175c0-1.381 1.119-2.5 2.5-2.5s2.5 1.119 2.5 2.5v11.175c0 1.381-1.119 2.5-2.5 2.5z"/></g></g><g><g><path d="m128.25 52.342h-10.083c-1.381 0-2.5-1.119-2.5-2.5s1.119-2.5 2.5-2.5h10.083c1.381 0 2.5 1.119 2.5 2.5s-1.119 2.5-2.5 2.5z"/></g></g><g><g><g><path d="m195 103.5c-4.136 0-7.5-3.364-7.5-7.5v-4c0-4.136 3.364-7.5 7.5-7.5s7.5 3.364 7.5 7.5v4c0 4.136-3.364 7.5-7.5 7.5zm0-14c-1.378 0-2.5 1.122-2.5 2.5v4c0 1.378 1.122 2.5 2.5 2.5s2.5-1.122 2.5-2.5v-4c0-1.378-1.122-2.5-2.5-2.5z"/></g></g></g><g><g><g><path d="m213.75 103.5c-4.136 0-7.5-3.364-7.5-7.5v-10c0-4.136 3.364-7.5 7.5-7.5s7.5 3.364 7.5 7.5v10c0 4.136-3.364 7.5-7.5 7.5zm0-20c-1.378 0-2.5 1.122-2.5 2.5v10c0 1.378 1.122 2.5 2.5 2.5s2.5-1.122 2.5-2.5v-10c0-1.378-1.122-2.5-2.5-2.5z"/></g></g></g><g><g><g><path d="m232.5 103.5c-4.136 0-7.5-3.364-7.5-7.5v-18c0-4.136 3.364-7.5 7.5-7.5s7.5 3.364 7.5 7.5v18c0 4.136-3.364 7.5-7.5 7.5zm0-28c-1.378 0-2.5 1.122-2.5 2.5v18c0 1.378 1.122 2.5 2.5 2.5s2.5-1.122 2.5-2.5v-18c0-1.378-1.122-2.5-2.5-2.5z"/></g></g></g></g></g></svg>